<svg width="200" height="40" viewBox="0 0 200 40" fill="none" xmlns="http://www.w3.org/2000/svg">
  <path d="M22.6507 17.9964C22.6507 18.633 22.6103 19.2962 22.5294 19.9859H6.87612C6.98398 21.3652 7.4289 22.4263 8.21089 23.169C9.01985 23.8852 10.0041 24.2433 11.1636 24.2433C12.8893 24.2433 14.0893 23.5271 14.7634 22.0947H22.1249C21.7474 23.5536 21.0598 24.8667 20.0621 26.0339C19.0913 27.201 17.8644 28.1162 16.3813 28.7793C14.8983 29.4425 13.2399 29.7741 11.4063 29.7741C9.19512 29.7741 7.22666 29.3099 5.50089 28.3814C3.77512 27.453 2.42686 26.1267 1.45612 24.4025C0.485373 22.6783 0 20.6623 0 18.3545C0 16.0467 0.47189 14.0307 1.41567 12.3065C2.38642 10.5823 3.73468 9.25594 5.46045 8.32751C7.18622 7.39909 9.16816 6.93488 11.4063 6.93488C13.5904 6.93488 15.5319 7.38583 17.2307 8.28773C18.9295 9.18962 20.2508 10.4761 21.1946 12.1473C22.1654 13.8185 22.6507 15.7682 22.6507 17.9964ZM15.5724 16.2058C15.5724 15.0387 15.1679 14.1103 14.3589 13.4206C13.55 12.7309 12.5388 12.386 11.3254 12.386C10.1659 12.386 9.18164 12.7176 8.37268 13.3808C7.59069 14.0439 7.10532 14.9856 6.91656 16.2058H15.5724Z" fill="#795CEF"/>
  <path d="M24.9243 18.3147C24.9243 16.0334 25.3558 14.0307 26.2187 12.3065C27.1085 10.5823 28.3085 9.25594 29.8185 8.32751C31.3286 7.39909 33.0139 6.93488 34.8745 6.93488C36.4654 6.93488 37.8541 7.2532 39.0406 7.88983C40.254 8.52646 41.1843 9.36204 41.8315 10.3966V7.2532H48.7481V29.4558H41.8315V26.3124C41.1574 27.3469 40.2136 28.1825 39.0002 28.8191C37.8137 29.4558 36.425 29.7741 34.834 29.7741C33.0004 29.7741 31.3286 29.3099 29.8185 28.3814C28.3085 27.4265 27.1085 26.0869 26.2187 24.3627C25.3558 22.612 24.9243 20.596 24.9243 18.3147ZM41.8315 18.3545C41.8315 16.6568 41.3461 15.3172 40.3754 14.3357C39.4316 13.3543 38.2721 12.8635 36.8969 12.8635C35.5216 12.8635 34.3487 13.3543 33.3779 14.3357C32.4341 15.2907 31.9622 16.617 31.9622 18.3147C31.9622 20.0124 32.4341 21.3652 33.3779 22.3732C34.3487 23.3547 35.5216 23.8454 36.8969 23.8454C38.2721 23.8454 39.4316 23.3547 40.3754 22.3732C41.3461 21.3918 41.8315 20.0522 41.8315 18.3545Z" fill="#795CEF"/>
  <path d="M62.9335 29.7741C60.9651 29.7741 59.2123 29.4425 57.6753 28.7793C56.1383 28.1162 54.9249 27.2143 54.035 26.0737C53.1452 24.9065 52.6463 23.6067 52.5385 22.1743H59.3741C59.455 22.9435 59.8191 23.5669 60.4662 24.0444C61.1134 24.5219 61.9089 24.7606 62.8526 24.7606C63.7155 24.7606 64.3762 24.6014 64.8346 24.2831C65.3199 23.9383 65.5626 23.5006 65.5626 22.9701C65.5626 22.3334 65.2256 21.8692 64.5514 21.5774C63.8773 21.2591 62.7852 20.9143 61.2752 20.5429C59.6573 20.1715 58.309 19.7869 57.2304 19.389C56.1518 18.9646 55.2215 18.3147 54.4395 17.4393C53.6575 16.5374 53.2665 15.3305 53.2665 13.8185C53.2665 12.5452 53.6171 11.3913 54.3182 10.3568C55.0462 9.29573 56.0979 8.46015 57.4731 7.85004C58.8753 7.23993 60.5336 6.93488 62.4482 6.93488C65.2795 6.93488 67.5041 7.62457 69.122 9.00394C70.7669 10.3833 71.7107 12.2136 71.9534 14.4949H65.5626C65.4548 13.7256 65.1042 13.1155 64.511 12.6646C63.9447 12.2136 63.1897 11.9882 62.2459 11.9882C61.437 11.9882 60.8168 12.1473 60.3853 12.4656C59.9539 12.7574 59.7382 13.1686 59.7382 13.6991C59.7382 14.3357 60.0752 14.8132 60.7494 15.1315C61.4504 15.4498 62.5291 15.7682 63.9852 16.0865C65.657 16.5109 67.0188 16.9353 68.0704 17.3597C69.122 17.7576 70.0388 18.4208 70.8208 19.3492C71.6298 20.2511 72.0478 21.4713 72.0747 23.0099C72.0747 24.3097 71.6972 25.4768 70.9422 26.5113C70.2141 27.5193 69.149 28.3151 67.7468 28.8987C66.3716 29.4823 64.7672 29.7741 62.9335 29.7741Z" fill="#795CEF"/>
  <path d="M99.3615 7.2532L85.2048 40H77.7624L82.9397 28.6998L73.758 7.2532H81.4836L86.7013 21.1398L91.8786 7.2532H99.3615Z" fill="#795CEF"/>
  <path d="M98.6778 18.343C98.6778 16.0352 99.1496 14.0192 100.093 12.295C101.064 10.5708 102.399 9.24444 104.098 8.31602C105.824 7.38759 107.792 6.92338 110.003 6.92338C112.834 6.92338 115.194 7.65286 117.081 9.11181C118.996 10.5708 120.25 12.6266 120.843 15.2792H113.482C112.861 13.5815 111.661 12.7327 109.882 12.7327C108.614 12.7327 107.603 13.2234 106.848 14.2049C106.093 15.1598 105.716 16.5392 105.716 18.343C105.716 20.1468 106.093 21.5394 106.848 22.5209C107.603 23.4758 108.614 23.9533 109.882 23.9533C111.661 23.9533 112.861 23.1045 113.482 21.4068H120.843C120.25 24.0064 118.996 26.0489 117.081 27.5344C115.167 29.0198 112.808 29.7626 110.003 29.7626C107.792 29.7626 105.824 29.2984 104.098 28.37C102.399 27.4415 101.064 26.1152 100.093 24.391C99.1496 22.6668 98.6778 20.6508 98.6778 18.343Z" fill="#795CEF"/>
  <path d="M134.817 29.7626C132.605 29.7626 130.61 29.2984 128.83 28.37C127.078 27.4415 125.689 26.1152 124.664 24.391C123.666 22.6668 123.168 20.6508 123.168 18.343C123.168 16.0617 123.68 14.059 124.705 12.3348C125.729 10.584 127.131 9.24444 128.911 8.31602C130.691 7.38759 132.686 6.92338 134.897 6.92338C137.109 6.92338 139.104 7.38759 140.884 8.31602C142.663 9.24444 144.066 10.584 145.09 12.3348C146.115 14.059 146.627 16.0617 146.627 18.343C146.627 20.6243 146.101 22.6403 145.05 24.391C144.025 26.1152 142.609 27.4415 140.803 28.37C139.023 29.2984 137.028 29.7626 134.817 29.7626ZM134.817 23.8737C136.138 23.8737 137.257 23.3963 138.174 22.4413C139.117 21.4864 139.589 20.1203 139.589 18.343C139.589 16.5657 139.131 15.1996 138.214 14.2447C137.324 13.2897 136.219 12.8122 134.897 12.8122C133.549 12.8122 132.43 13.2897 131.54 14.2447C130.65 15.1731 130.206 16.5392 130.206 18.343C130.206 20.1203 130.637 21.4864 131.5 22.4413C132.39 23.3963 133.495 23.8737 134.817 23.8737Z" fill="#795CEF"/>
  <path d="M164.049 7.00296C166.691 7.00296 168.795 7.8518 170.359 9.54949C171.95 11.2207 172.745 13.5284 172.745 16.4729V29.4443H165.869V17.388C165.869 15.9026 165.478 14.7487 164.696 13.9263C163.914 13.104 162.862 12.6929 161.541 12.6929C160.22 12.6929 159.168 13.104 158.386 13.9263C157.604 14.7487 157.213 15.9026 157.213 17.388V29.4443H150.297V7.2417H157.213V10.1861C157.914 9.20465 158.858 8.43538 160.045 7.87833C161.231 7.29475 162.566 7.00296 164.049 7.00296Z" fill="#795CEF"/>
  <path d="M176.176 18.3032C176.176 16.0219 176.608 14.0192 177.471 12.295C178.36 10.5708 179.56 9.24444 181.07 8.31602C182.58 7.38759 184.266 6.92338 186.126 6.92338C187.609 6.92338 188.958 7.22843 190.171 7.83854C191.412 8.44865 192.382 9.27096 193.083 10.3055V0H200V29.4443H193.083V26.2611C192.436 27.3222 191.506 28.171 190.293 28.8076C189.106 29.4443 187.717 29.7626 186.126 29.7626C184.266 29.7626 182.58 29.2984 181.07 28.37C179.56 27.415 178.36 26.0754 177.471 24.3512C176.608 22.6005 176.176 20.5845 176.176 18.3032ZM193.083 18.343C193.083 16.6453 192.598 15.3057 191.627 14.3242C190.684 13.3428 189.524 12.852 188.149 12.852C186.774 12.852 185.601 13.3428 184.63 14.3242C183.686 15.2792 183.214 16.6055 183.214 18.3032C183.214 20.0009 183.686 21.3537 184.63 22.3617C185.601 23.3432 186.774 23.8339 188.149 23.8339C189.524 23.8339 190.684 23.3432 191.627 22.3617C192.598 21.3803 193.083 20.0407 193.083 18.343Z" fill="#795CEF"/>
</svg>
